<svg xmlns="http://www.w3.org/2000/svg" xmlns:xlink="http://www.w3.org/1999/xlink" viewBox="0 0 500 500"><defs><style>.cls-1{fill:url(#linear-gradient);}.cls-2{fill:#fff;}</style><linearGradient id="linear-gradient" x1="14.69" y1="485.31" x2="485.31" y2="14.69" gradientUnits="userSpaceOnUse"><stop offset="0" stop-color="#11998e"/><stop offset="1" stop-color="#38ef7d"/></linearGradient></defs><title>logo_mk2</title><g id="Background"><rect class="cls-1" width="500" height="500" rx="50"/></g><g id="Battery"><path class="cls-2" d="M400.56,85.93h33.35a2.23,2.23,0,0,0,.43.16A7.74,7.74,0,0,1,441,92.94a52.41,52.41,0,0,1,.12,5.61c0,.94,0,1.88,0,2.84h40c0-2.54,0-5,0-7.48a7.91,7.91,0,0,1,5.36-7.46c.56-.19,1.13-.35,1.69-.52h33.54a1.62,1.62,0,0,0,.41.17,7.91,7.91,0,0,1,6.67,8v7.4c1,0,1.9,0,2.78,0a51,51,0,0,1,5.68.49,24.2,24.2,0,0,1,19.51,23.35V355l-.7-.06c-6.27-.67-12.53-1.61-18.83-2a94.38,94.38,0,0,0-25.36,2c-3.86.85-7.66,2-11.48,3.06-11,3-20.1,9.09-27.92,17.19-3.71,3.83-6.32,8.47-9,13.07-4.89,8.45-7.48,17.64-8.88,27.22-.22,1.46-.38,2.93-.57,4.45h-1.35q-31.07,0-62.11,0a34.12,34.12,0,0,1-4.74-.33,24.17,24.17,0,0,1-20.41-23.44q0-135.42,0-270.84a19,19,0,0,1,.07-2A24.16,24.16,0,0,1,389,101.53c1.45,0,2.9,0,4.46,0v-1.21c0-2.13,0-4.26,0-6.38a7.94,7.94,0,0,1,6.07-7.71Zm56,187.55-1.7,12.59q-1.47,11.08-3,22.16t-3,22.07q-1.47,11-2.95,22.07c-.66,4.9-1.34,9.81-2,14.71a2.7,2.7,0,0,0,3.5,3.07,4.39,4.39,0,0,0,1.89-1.74q31.49-49.56,62.93-99.14c1.49-2.34.54-4.26-1.68-5-12.27-4.37-24.49-8.86-36.73-13.32l-8.24-3c0-.37.08-.68.12-1l1.23-9.25q1.49-11,3-22.07,1.56-11.69,3.13-23.39l2.76-20.65c.78-5.78,1.57-11.57,2.33-17.35a2.74,2.74,0,0,0-2.88-3.13,3,3,0,0,0-2.45,1.71q-8.78,13.88-17.57,27.73-22.79,35.92-45.56,71.85c-1.32,2.08-.73,3.83,1.55,4.66l36.72,13.36Z" transform="translate(-210.68 -35.93)"/><path class="cls-2" d="M631.3,361.82c-.17,1-.41,2-.51,3-.43,4.1-.68,8.22-1.27,12.3-.83,5.77-1.64,11.57-3,17.24a229.57,229.57,0,0,1-7.16,24.24,124.61,124.61,0,0,1-21.78,38c-4.52,5.49-10.1,9.86-15.86,14C571.5,478,560,482.16,547.67,484.44a110.61,110.61,0,0,1-12.86,1.39,81.45,81.45,0,0,1-18-1.34,99.05,99.05,0,0,1-21.11-6.22,7.17,7.17,0,0,1-4.27-7.15c.14-4,4.89-6.15,8-5,3.6,1.32,7.19,2.69,10.83,3.89a68.73,68.73,0,0,0,19,3.24A70.81,70.81,0,0,0,551,471c10.38-2.88,20.06-7.31,28.26-14.39,5.78-5,11.28-10.38,15.38-16.93a138.79,138.79,0,0,0,14.24-29.05,183.76,183.76,0,0,0,5.81-21.77c.47-2.23,1-4.46,1.43-6.7a14,14,0,0,0,.12-1.79c-.6.31-1,.52-1.42.74-3.94,2.15-8,4-12.5,4.66a72.87,72.87,0,0,1-18.67.45c-7.39-.87-14.59-2.69-21.9-3.91a182.06,182.06,0,0,0-23.17-2.46,63.91,63.91,0,0,0-19.84,2.51c-4.29,1.22-8.59,2.51-12.73,4.15-5.5,2.18-9.82,6-13.66,10.5-6.57,7.72-9.92,16.78-11.61,26.59a20,20,0,0,1-.44,2c-.15.54,0,.76.54.87,4.7,1.07,9.37,2.27,14.09,3.18a100.4,100.4,0,0,0,29.1,1.27c10.89-1.07,21-4.39,29.68-11.39,1.18-.95,2.29-2,3.43-3l.14-.13c2.09-1.91,4.29-3,7.24-1.79,2.66,1,4.71,4.07,4,6.86a8.54,8.54,0,0,1-1.82,3.27c-3.73,4.36-8.43,7.45-13.39,10.23A72.34,72.34,0,0,1,524,443.79a113,113,0,0,1-29.66-1.42,162.14,162.14,0,0,1-22-5.27c-4.18-1.36-5.83-4.4-5-8.72.48-2.52.65-5.1,1.08-7.63A69.41,69.41,0,0,1,483.28,388c3.22-4,7.42-6.81,11.53-9.75A40.06,40.06,0,0,1,505.66,373c4.53-1.52,9.18-2.7,13.83-3.83,5.57-1.35,11.29-1.57,17-1.84a102.63,102.63,0,0,1,19.43,1.33c7.28,1,14.47,2.64,21.71,3.92A77.8,77.8,0,0,0,594.1,374a35.1,35.1,0,0,0,9.92-1.64A23.84,23.84,0,0,0,616,363.31c.89-1.27,1.61-2.66,2.45-4a21.57,21.57,0,0,1,1.78-2.45,5.85,5.85,0,0,1,6.51-1.7A6,6,0,0,1,631,360c.09.43.23.84.35,1.26Z" transform="translate(-210.68 -35.93)"/></g></svg>