<svg id="e041b973-6ae3-493a-9ba5-a124cb4fb925" data-name="icon" xmlns="http://www.w3.org/2000/svg" viewBox="0 0 426.22 344.71"><title>route-path01</title><path d="M957.67,387.62c-8.09-8-15.39-15.14-22.65-22.34a12,12,0,0,1-3.16-13.09,12.14,12.14,0,0,1,9.79-8.32,11.6,11.6,0,0,1,10.66,3.38c14.72,14.62,29.45,29.24,44,44,5.24,5.33,5.16,12.45-.11,17.8q-21.69,22.05-43.73,43.75a12.34,12.34,0,0,1-17.81-.21c-4.75-4.86-4.73-12.34.29-17.53,6.34-6.55,12.87-12.93,19.28-19.42.83-.84,2-1.47,2.38-3.05h-3.37q-144.72,0-289.45,0c-20.37,0-37.3,7.37-50.42,22.9-19,22.52-18.87,56.82,0,79.49,12.23,14.7,27.94,22.22,47,22.79,16,.49,32-.5,48,.62a121.31,121.31,0,0,1,52,15.45A124.45,124.45,0,0,1,814,613a121.15,121.15,0,0,1,10.48,48.72c0,4.63.09,9.25,0,13.87-.1,7.27-5.51,12.8-12.42,12.8s-12.39-5.44-12.39-12.77c0-13-.22-26-3.71-38.64-6.76-24.54-20.92-43.78-42.12-57.65a98.53,98.53,0,0,0-56-16.24c-14,.12-28,.65-42-.43-29.55-2.28-52.46-16-68.37-40.83C564.59,486,571.37,438.63,603,410.27c17.37-15.57,37.76-22.69,61-22.67q144.16.09,288.32,0Z" transform="translate(-573.96 -343.65)"/></svg>