<svg id="icon" xmlns="http://www.w3.org/2000/svg" viewBox="0 0 85.04 84.97"><defs><style>.cls-1{fill:#fff;}</style></defs><title>search-icon</title><path class="cls-1" d="M439.07,180.92,451,191.47l13.41,11.94a2.83,2.83,0,1,1-3.8,4.18l-23.62-21c-.69-.62-1.34-1.61-2.12-1.73s-1.53.89-2.31,1.37a33.4,33.4,0,0,1-13.46,4.9A34,34,0,0,1,381.3,165c-2.38-10.82-.09-20.71,7-29.22,7.78-9.27,17.93-13.3,29.93-12,10.19,1.09,18.3,6.07,24.17,14.52a32.94,32.94,0,0,1,5.83,22.6A33.81,33.81,0,0,1,439.07,180.92Zm-53-23.52a28.34,28.34,0,1,0,28.46-28.28A28.36,28.36,0,0,0,386.08,157.4Z" transform="translate(-380.39 -123.48)"/></svg>